<?xml version="1.0" encoding="utf-8"?>
<!-- Svg Vector Icons : http://www.onlinewebfonts.com/icon -->
<!DOCTYPE svg PUBLIC "-//W3C//DTD SVG 1.1//EN" "http://www.w3.org/Graphics/SVG/1.1/DTD/svg11.dtd">
<svg version="1.1" xmlns="http://www.w3.org/2000/svg" xmlns:xlink="http://www.w3.org/1999/xlink" x="0px" y="0px" viewBox="0 0 1000 1000" enable-background="new 0 0 1000 1000" xml:space="preserve">
<metadata> Svg Vector Icons : http://www.onlinewebfonts.com/icon </metadata>
<g><g transform="translate(0.000000,511.000000) scale(0.100000,-0.100000)"><path fill="#ffffff" d="M4875.9,4977.9c-39.2-17.4-91.5-63.2-115.4-102.4c-41.4-69.7-43.6-106.7-43.6-1028v-954l84.9-84.9c76.2-76.2,95.8-84.9,198.2-84.9s122,8.7,198.2,84.9l85,84.9v954c0,921.3-2.2,958.3-43.6,1028c-45.7,74.1-156.8,135-243.9,135C4967.3,5008.4,4912.9,4995.3,4875.9,4977.9z"/><path fill="#ffffff" d="M1600.1,3610.1c-100.2-65.3-159-189.5-139.4-294c10.9-69.7,106.7-174.2,692.6-760.1l679.6-681.7h117.6c106.7,0,124.2,6.5,200.4,84.9c78.4,76.2,84.9,93.7,84.9,200.4V2275L2578,2937.1c-363.7,363.7-686.1,675.2-718.7,692.6C1774.4,3673.2,1685.1,3666.7,1600.1,3610.1z"/><path fill="#ffffff" d="M8125.5,3618.8c-34.8-21.8-357.2-333.2-712.2-692.6l-649-651.2v-115.4c0-106.7,6.5-124.2,85-200.4c76.2-78.4,93.6-84.9,200.4-84.9H7165l662.1,659.9c363.7,361.6,675.2,683.9,692.6,716.6c65.3,124.1,10.9,281-126.3,365.9C8304.1,3671.1,8210.4,3671.1,8125.5,3618.8z"/><path fill="#ffffff" d="M4734.3,2048.4C4072.2,1943.9,3532,1551.9,3246.7,970.3C3100.8,671.9,3052.9,465,3052.9,110c0-355,47.9-561.9,193.8-860.3c252.7-511.8,736.2-903.9,1285-1038.9c274.4-65.3,662.1-65.3,936.5,0c683.9,167.7,1245.8,725.3,1431,1420.1c69.7,263.5,69.7,694.8,0,958.3c-224.3,842.9-960.5,1437.5-1820.8,1470.2C4956.4,2063.7,4801.8,2059.3,4734.3,2048.4z M5335.4,1438.6c463.9-117.6,832-468.3,977.9-925.7c37-119.8,47.9-204.7,47.9-402.9c0-198.2-10.9-283.1-47.9-402.9c-137.2-429.1-481.3-773.2-910.4-910.4c-119.8-37-204.7-47.9-402.9-47.9c-198.2,0-283.1,10.9-402.9,47.9c-424.7,135-773.2,479.2-906.1,899.5c-65.3,200.4-78.4,496.6-32.7,701.3c141.6,631.6,690.4,1078.1,1332.9,1082.5C5098,1482.2,5233.1,1464.7,5335.4,1438.6z"/><path fill="#ffffff" d="M228,343.1C180,310.4,143,260.3,121.2,201.5c-28.3-80.6-28.3-102.4,0-183C143-40.3,180-90.4,228-123l74.1-50.1h958.3h956.2l84.9,85c76.2,76.2,84.9,95.8,84.9,198.2s-8.7,122-84.9,198.2l-84.9,84.9h-956.2H302L228,343.1z"/><path fill="#ffffff" d="M7698.6,308.2c-76.2-76.2-85-95.8-85-198.2s8.7-122,85-198.2l84.9-85h956.2H9698l74,50.1c47.9,32.7,85,82.8,106.7,141.6c28.3,80.6,28.3,102.4,0,183C9857,260.3,9820,310.4,9772,343.1l-74,50.1h-958.3h-956.2L7698.6,308.2z"/><path fill="#ffffff" d="M2172.9-2312c-363.7-363.7-675.2-686.1-692.6-718.7c-43.6-84.9-37-174.2,19.6-259.2c71.9-106.7,180.8-161.2,287.5-141.6c78.4,15.2,161.2,91.5,768.8,694.8l679.5,679.6v117.6c0,106.7-6.5,124.1-84.9,200.4c-76.2,78.4-93.7,85-200.4,85h-115.4L2172.9-2312z"/><path fill="#ffffff" d="M6849.2-1739.2c-78.4-76.2-85-93.6-85-200.4V-2055l668.7-670.8c368.1-368.1,694.8-679.5,729.6-694.8c220-89.3,468.3,180.8,357.2,389.9c-17.4,32.7-328.9,355-692.6,718.7L7165-1654.2h-115.4C6942.8-1654.2,6925.4-1660.7,6849.2-1739.2z"/><path fill="#ffffff" d="M4801.8-2588.6l-84.9-84.9v-954c0-897.3,2.2-960.5,41.4-1023.7c43.6-69.7,161.2-139.4,239.6-139.4c87.1,0,196,61,241.8,135c41.4,69.7,43.6,106.7,43.6,1028v954l-85,84.9c-76.2,76.2-95.8,85-198.2,85S4878-2512.3,4801.8-2588.6z"/></g></g>
</svg>